<?xml version="1.0" encoding="utf-8"?>
<!-- Generator: Adobe Illustrator 19.1.0, SVG Export Plug-In . SVG Version: 6.00 Build 0)  -->
<svg version="1.1" id="Capa_1" xmlns="http://www.w3.org/2000/svg" xmlns:xlink="http://www.w3.org/1999/xlink" x="0px" y="0px"
	 viewBox="-592 353.1 94.9 94.9" style="enable-background:new -592 353.1 94.9 94.9;" xml:space="preserve">
<style type="text/css">
	.st0{fill:#EF0A0A;}
</style>
<g>
	<path class="st0" d="M-536.1,400.5l38.4-38.4c0.8-0.8,0.8-2.2,0-3l-5.5-5.5c-0.4-0.4-0.9-0.6-1.5-0.6c-0.6,0-1.1,0.2-1.5,0.6
		l-38.4,38.4l-38.4-38.4c-0.8-0.8-2.2-0.8-3,0l-5.5,5.5c-0.8,0.8-0.8,2.2,0,3l38.4,38.4l-38.4,38.4c-0.8,0.8-0.8,2.2,0,3l5.5,5.5
		c0.4,0.4,0.9,0.6,1.5,0.6s1.1-0.2,1.5-0.6l38.4-38.4l38.4,38.4c0.4,0.4,0.9,0.6,1.5,0.6s1.1-0.2,1.5-0.6l5.5-5.5
		c0.8-0.8,0.8-2.2,0-3L-536.1,400.5z"/>
</g>
</svg>
